<svg xmlns="http://www.w3.org/2000/svg" width="54" height="41.524"><g transform="matrix(.15 0 0 .15 -1.08 -1.378)"><linearGradient id="a" gradientUnits="userSpaceOnUse" x1="7.196" y1="919.28" x2="367.194" y2="919.28" gradientTransform="translate(0 -771.68)"><stop offset="0" stop-color="#e3056e"/><stop offset=".316" stop-color="#a91176"/><stop offset=".631" stop-color="#761b7c"/><stop offset=".868" stop-color="#572280"/><stop offset="1" stop-color="#4b2482"/></linearGradient><path d="M13.43 214.01c25.84 67.05 124.59 91.68 220.56 55 95.97-36.68 152.81-120.77 126.97-187.82-25.84-67.05-124.59-91.68-220.56-55C44.43 62.87-12.41 146.95 13.43 214.01z" fill="url(#a)"/><path d="M301.96 178.43c0 6.87-5.41 12.44-12.09 12.44s-12.09-5.57-12.09-12.44c0-6.87 5.41-12.44 12.09-12.44s12.09 5.57 12.09 12.44z" fill="#bbda16"/><path d="M334.37 171.73l-.68-1.25-33.28-58.44-1.06-1.7c-2.3-3.62-5.2-5.93-9.34-6.01-4.13.09-7.14 2.5-9.43 6.22l-1.1 1.74-33.06 57.81-1.05 1.85c-1.4 2.63-2.47 4.67-2.47 7.46 0 6.18 4.73 10.92 10.71 10.94 3.96 0 7.24-2.45 9.75-6.31l.95-1.53 25.7-45.87 25.68 46.07.76 1.21c2.49 3.93 5.86 6.41 9.83 6.4 5.98-.01 10.72-4.71 10.72-10.89 0-2.77-1.24-5.1-2.63-7.7zm-75.44-56.56c0-6.19-4.56-10.36-10.67-10.67-.03 0-.88-.11-2.06-.11h-82.16c-1.45 0-1.67.01-2.46.02-4.35.07-7.5 2.34-9.31 5.94-.65 1.15-1.06 2.11-1.06 2.11l-17.83 40.27-16.73-37.87c-.57-1.31-1.12-2.4-1.12-2.4-2.73-5.72-6.17-8.07-10.54-8.07-4.09 0-7.4 1.69-10.49 7.84 0 0-.43.9-1.05 2.22-.62 1.33-16.97 38.26-16.97 38.26l-16.99-38.29-.79-1.56c-2.34-5.08-5.12-8.15-10.5-8.46-3.94-.23-7.65 2.07-9.56 5.41-.95 1.68-2.24 5.02-.02 10.69.21.53.3.78.77 1.85 3.97 8.91 21.56 48.48 26 58.46.47 1.09.96 1.98 1.45 2.85 2.36 4.32 5.71 6.68 9.65 6.68 4.09 0 7.41-2.18 9.96-6.72.58-1.02 1.65-3.47 1.65-3.47l16.9-38.24s17.19 38.88 17.6 39.69c.4.81.78 1.53 1.49 2.73 2.15 3.66 4.82 6 9.29 6 4.62 0 6.84-2.36 9.31-6.06.32-.47.93-1.6 1.63-3.02.75-1.54 24.55-55.23 24.55-55.23l27.73.01.01 51.34.07 1.66c.17 6.28 4.92 11.34 10.96 11.34 6.24 0 10.52-4.93 10.76-11.37l.08-1.72v-51.21s25.87-.02 27.73-.01c1.19 0 1.48-.02 1.96-.05 6-.16 10.76-4.66 10.76-10.84z" fill="#fff"/></g></svg>